<!--
  - Copyright (©) 2026 Mihai-Cristian Condrea
  -
  - This program is free software: you can redistribute it and/or modify
  - it under the terms of the GNU General Public License as published by
  - the Free Software Foundation, either version 3 of the License, or
  - (at your option) any later version.
  -
  - This program is distributed in the hope that it will be useful,
  - but WITHOUT ANY WARRANTY; without even the implied warranty of
  - MERCHANTABILITY or FITNESS FOR A PARTICULAR PURPOSE. See the
  - GNU General Public License for more details.
  -
  - You should have received a copy of the GNU General Public License
  - along with this program. If not, see <https://www.gnu.org/licenses/>.
  -->

<svg fill="none" height="24" viewBox="0 0 24 24" width="24" xmlns="http://www.w3.org/2000/svg">
    <path
        d="M4 18C3.16667 18 2.45833 17.7083 1.875 17.125C1.29167 16.5417 1 15.8333 1 15V9C1 8.16667 1.29167 7.45833 1.875 6.875C2.45833 6.29167 3.16667 6 4 6H17.5C18.3333 6 19.0417 6.29167 19.625 6.875C20.2083 7.45833 20.5 8.16667 20.5 9V15C20.5 15.8333 20.2083 16.5417 19.625 17.125C19.0417 17.7083 18.3333 18 17.5 18H4ZM21.5 14.5V9.5H22C22.2833 9.5 22.5208 9.59583 22.7125 9.7875C22.9042 9.97917 23 10.2167 23 10.5V13.5C23 13.7833 22.9042 14.0208 22.7125 14.2125C22.5208 14.4042 22.2833 14.5 22 14.5H21.5Z"
        fill="#9198A0" />
</svg>
